<?xml version="1.0" encoding="utf-8"?>
<!-- Generator: Adobe Illustrator 22.1.0, SVG Export Plug-In . SVG Version: 6.00 Build 0)  -->
<svg version="1.1" id="Dankl_Logo" xmlns="http://www.w3.org/2000/svg" xmlns:xlink="http://www.w3.org/1999/xlink" x="0px" y="0px"
	 viewBox="0 0 100 100" style="enable-background:new 0 0 100 100;" xml:space="preserve">
<style type="text/css">
	.st0{fill-rule:evenodd;clip-rule:evenodd;fill:#FF0090;}
	.st1{fill:#FFFFFF;}
</style>
<g>
	<rect class="st0" width="100" height="100"/>
	<path class="st1" d="M24.4,90h-5.8v-1.9c-0.4,0.3-0.8,0.6-1.3,1c-0.5,0.3-0.9,0.6-1.3,0.8c-0.5,0.2-0.9,0.4-1.4,0.5
		c-0.5,0.1-1,0.2-1.6,0.2c-2.1,0-3.8-0.8-5-2.5c-1.2-1.7-1.8-4-1.8-6.8c0-1.6,0.2-2.9,0.6-4.1c0.4-1.2,1-2.2,1.7-3
		c0.7-0.8,1.5-1.4,2.4-1.9c1-0.5,2-0.7,3-0.7c1,0,1.8,0.1,2.4,0.3c0.6,0.2,1.3,0.5,2.2,0.9v-7.7h5.8V90z M18.6,85v-8.8
		c-0.3-0.1-0.7-0.3-1.1-0.3c-0.5-0.1-0.9-0.1-1.2-0.1c-1.4,0-2.4,0.5-3.1,1.4c-0.7,0.9-1,2.3-1,3.9c0,1.8,0.3,3.1,0.8,3.8
		c0.6,0.8,1.5,1.2,2.7,1.2c0.5,0,1-0.1,1.5-0.3C17.7,85.6,18.2,85.4,18.6,85z M37.9,88.1c-0.4,0.3-0.7,0.6-1.1,0.9
		c-0.3,0.3-0.7,0.5-1.3,0.8c-0.5,0.2-1,0.4-1.5,0.6c-0.5,0.1-1.2,0.2-2.1,0.2c-1.6,0-3-0.5-4.1-1.6c-1.1-1.1-1.6-2.4-1.6-4
		c0-1.3,0.3-2.4,0.8-3.2c0.5-0.8,1.3-1.5,2.4-2c1-0.5,2.3-0.8,3.7-1c1.4-0.2,3-0.3,4.7-0.4v-0.1c0-1-0.4-1.7-1.1-2.1
		s-1.9-0.6-3.4-0.6c-0.7,0-1.5,0.1-2.4,0.4c-0.9,0.2-1.8,0.5-2.7,0.9h-0.5v-4.3c0.6-0.2,1.5-0.3,2.8-0.6c1.3-0.2,2.6-0.3,3.9-0.3
		c3.2,0,5.5,0.5,7,1.5c1.5,1,2.2,2.6,2.2,4.7V90h-5.7V88.1z M37.9,85.3v-3.7c-1,0.1-1.8,0.2-2.4,0.2c-0.6,0.1-1.2,0.2-1.8,0.4
		c-0.5,0.2-0.9,0.4-1.2,0.8c-0.3,0.3-0.4,0.8-0.4,1.4c0,0.8,0.2,1.4,0.7,1.7c0.5,0.3,1.2,0.5,2.1,0.5c0.5,0,1-0.1,1.5-0.3
		C37,86,37.5,85.7,37.9,85.3z M63.9,90h-5.8v-8.9c0-0.7,0-1.4-0.1-2.2c-0.1-0.7-0.2-1.3-0.3-1.6c-0.2-0.4-0.5-0.7-0.9-0.9
		c-0.4-0.2-0.9-0.3-1.5-0.3c-0.5,0-1,0.1-1.4,0.3c-0.5,0.2-1,0.4-1.5,0.8V90h-5.8V72h5.8v2c0.9-0.8,1.9-1.4,2.8-1.8
		c0.9-0.4,1.9-0.7,3-0.7c1.9,0,3.3,0.6,4.3,1.7c1,1.2,1.5,2.8,1.5,5V90z M85.5,90h-6.9l-5-7.8l-0.9,1.2V90h-5.8V65.1h5.8v14l5.5-7
		H85l-6.5,7.8L85.5,90z M92.5,90h-5.8V65.1h5.8V90z"/>
</g>
</svg>
